:FULLY-SPECIFIED
:FORCE-ALL-JOINTS-BE-3DOF
:DEGREES
306
root -0.0186063 15.3761 -36.0729 21.004 33.9931 8.42653
lfemur -33.8021 30.0422 -16.2972
ltibia 74.0789 0 0
lfoot -25.868 29.338 0
ltoes 11.8605 0 0
rfemur -33.3692 -19.0688 15.1784
rtibia 57.2343 0 0
rfoot -18.7643 -16.0908 0
rtoes -26.3372 0 0
lowerback 13.3103 1.82638 3.73792
upperback -3.54905 3.447 2.99188
thorax -11.2862 1.4936 0.384163
lowerneck -5.09092 8.73844 3.95363
upperneck 4.88983 12.0058 -8.46544
head 3.24602 5.77959 -2.56577
lclavicle -4.84296e-14 -2.04674e-14 0
lhumerus -18.8609 -23.2639 74.7872
lradius 111.954 0 0
lwrist 32.299 0 0
lhand -18.9055 52.5187 0
lfingers 7.12502 0 0
lthumb 7.39632 82.3693 0
rclavicle -4.84296e-14 -2.04674e-14 0
rhumerus -41.8552 39.9696 -94.1756
rradius 98.1103 0 0
rwrist -40.5904 0 0
rhand 39.0108 -20.3235 0
rfingers 7.12502 0 0
rthumb 61.1208 -29.2138 0
307
root 0.112552 15.3605 -36.0234 22.0394 34.3072 9.65912
lfemur -33.3552 29.5877 -16.2595
ltibia 73.6387 0 0
lfoot -25.8904 29.1572 0
ltoes 11.4691 0 0
rfemur -33.451 -18.78 14.9923
rtibia 56.9414 0 0
rfoot -18.3856 -15.7378 0
rtoes -25.757 0 0
lowerback 13.296 1.81992 3.55877
upperback -3.52524 3.40339 2.9669
thorax -11.2538 1.48264 0.469286
lowerneck -5.10297 8.52668 3.80374
upperneck 4.93591 11.7225 -8.2962
head 3.2547 5.64094 -2.50302
lclavicle -4.75648e-14 -2.02098e-14 0
lhumerus -19.2465 -23.2444 75.3623
lradius 111.287 0 0
lwrist 32.156 0 0
lhand -18.9959 52.2605 0
lfingers 7.12502 0 0
lthumb 7.30905 82.1128 0
rclavicle -4.75648e-14 -2.02098e-14 0
rhumerus -40.9346 39.4637 -93.814
rradius 97.2082 0 0
rwrist -39.8584 0 0
rhand 38.1617 -20.4868 0
rfingers 7.12502 0 0
rthumb 60.3366 -29.7129 0
308
root 0.243711 15.3449 -35.9739 23.2555 34.6989 11.0988
lfemur -32.8443 29.0789 -16.222
ltibia 73.1472 0 0
lfoot -25.9175 28.9706 0
ltoes 11.0328 0 0
rfemur -33.5533 -18.4538 14.7769
rtibia 56.6055 0 0
rfoot -17.9383 -15.343 0
rtoes -25.0982 0 0
lowerback 13.284 1.81231 3.35528
upperback -3.49757 3.35351 2.93922
thorax -11.2187 1.47002 0.56673
lowerneck -5.11644 8.28919 3.63625
upperneck 4.98625 11.4051 -8.10947
head 3.26416 5.48548 -2.43372
lclavicle -4.66069e-14 -1.99286e-14 0
lhumerus -19.6877 -23.2389 76.0184
lradius 110.584 0 0
lwrist 32.0408 0 0
lhand -19.0933 51.9786 0
lfingers 7.12502 0 0
lthumb 7.21504 81.8328 0
rclavicle -4.66069e-14 -1.99286e-14 0
rhumerus -39.8741 38.9074 -93.4063
rradius 96.2161 0 0
rwrist -39.0445 0 0
rhand 37.2237 -20.6714 0
rfingers 7.12502 0 0
rthumb 59.4705 -30.2704 0
309
root 0.374869 15.3292 -35.9245 24.6733 35.1798 12.7689
lfemur -32.2636 28.5122 -16.1858
ltibia 72.6015 0 0
lfoot -25.9499 28.7803 0
ltoes 10.5489 0 0
rfemur -33.6793 -18.0872 14.5292
rtibia 56.2226 0 0
rfoot -17.414 -14.9039 0
rtoes -24.3541 0 0
lowerback 13.2751 1.80344 3.12536
upperback -3.46563 3.29678 2.90871
thorax -11.1808 1.45558 0.677657
lowerneck -5.13141 8.02425 3.45006
upperneck 5.0409 11.0512 -7.90455
head 3.2744 5.31206 -2.3576
lclavicle -4.55515e-14 -1.96234e-14 0
lhumerus -20.1895 -23.251 76.7628
lradius 109.849 0 0
lwrist 31.9628 0 0
lhand -19.1974 51.6729 0
lfingers 7.12502 0 0
lthumb 7.11446 81.529 0
rclavicle -4.55515e-14 -1.96234e-14 0
rhumerus -38.6595 38.2991 -92.9489
rradius 95.1309 0 0
rwrist -38.1444 0 0
rhand 36.193 -20.879 0
rfingers 7.12502 0 0
rthumb 58.519 -30.8897 0
310
root 0.506028 15.3136 -35.875 26.3141 35.7617 14.693
lfemur -31.607 27.8842 -16.1517
ltibia 71.9982 0 0
lfoot -25.9882 28.5885 0
ltoes 10.0149 0 0
rfemur -33.832 -17.6773 14.2463
rtibia 55.7885 0 0
rfoot -16.8044 -14.4177 0
rtoes -23.5181 0 0
lowerback 13.27 1.79315 2.86695
upperback -3.429 3.23263 2.87524
thorax -11.1402 1.43914 0.803227
lowerneck -5.14797 7.7301 3.24407
upperneck 5.09994 10.6586 -7.68076
head 3.28544 5.11955 -2.27438
lclavicle -4.43941e-14 -1.9294e-14 0
lhumerus -20.7572 -23.2843 77.6028
lradius 109.087 0 0
lwrist 31.9313 0 0
lhand -19.3082 51.3428 0
lfingers 7.12502 0 0
lthumb 7.00749 81.2012 0
rclavicle -4.43941e-14 -1.9294e-14 0
rhumerus -37.2766 37.6371 -92.4385
rradius 93.9498 0 0
rwrist -37.1536 0 0
rhand 35.066 -21.1113 0
rfingers 7.12502 0 0
rthumb 57.4789 -31.5746 0
311
root 0.637186 15.298 -35.8255 28.1991 36.4562 16.8944
lfemur -30.8686 27.1912 -16.1204
ltibia 71.3343 0 0
lfoot -26.0332 28.3976 0
ltoes 9.42804 0 0
rfemur -34.0148 -17.2211 13.9249
rtibia 55.2991 0 0
rfoot -16.1012 -13.8819 0
rtoes -22.5834 0 0
lowerback 13.2695 1.78133 2.57796
upperback -3.38727 3.16047 2.83868
thorax -11.0969 1.42054 0.944601
lowerneck -5.16621 7.40499 3.01718
upperneck 5.16344 10.2249 -7.4374
head 3.29728 4.90681 -2.18381
lclavicle -4.31305e-14 -1.89399e-14 0
lhumerus -21.3961 -23.3425 78.5456
lradius 108.303 0 0
lwrist 31.9555 0 0
lhand -19.4254 50.988 0
lfingers 7.12502 0 0
lthumb 6.89429 80.8488 0
rclavicle -4.31305e-14 -1.89399e-14 0
rhumerus -35.7115 36.9198 -91.8715
rradius 92.6698 0 0
rwrist -36.0676 0 0
rhand 33.8388 -21.3701 0
rfingers 7.12502 0 0
rthumb 56.3466 -32.3285 0
312
root 0.768345 15.2824 -35.776 30.3494 37.275 19.3966
lfemur -30.0427 26.4299 -16.0928
ltibia 70.6067 0 0
lfoot -26.0855 28.2097 0
ltoes 8.78582 0 0
rfemur -34.2305 -16.7158 13.5621
rtibia 54.7503 0 0
rfoot -15.2961 -13.2937 0
rtoes -21.5435 0 0
lowerback 13.2745 1.76783 2.25632
upperback -3.34001 3.07972 2.79889
thorax -11.0508 1.39961 1.10294
lowerneck -5.18622 7.04718 2.7683
upperneck 5.23147 9.74792 -7.17378
head 3.30993 4.6727 -2.0856
lclavicle -4.17562e-14 -1.85608e-14 0
lhumerus -22.1112 -23.4291 79.5987
lradius 107.501 0 0
lwrist 32.0447 0 0
lhand -19.5489 50.6083 0
lfingers 7.12502 0 0
lthumb 6.77504 80.4717 0
rclavicle -4.17562e-14 -1.85608e-14 0
rhumerus -33.9501 36.1456 -91.2443
rradius 91.2879 0 0
rwrist -34.8822 0 0
rhand 32.5077 -21.657 0
rfingers 7.12502 0 0
rthumb 55.1189 -33.1552 0
